<mxfile host="app.diagrams.net" modified="2023-12-01T15:20:02.785Z" agent="Mozilla/5.0 (Windows NT 10.0; Win64; x64) AppleWebKit/537.36 (KHTML, like Gecko) Chrome/119.0.0.0 Safari/537.36" etag="4w3ecphZfQIkOANufU8i" version="22.1.5" type="github">
  <diagram id="C5RBs43oDa-KdzZeNtuy" name="Page-1">
    <mxGraphModel dx="880" dy="446" grid="1" gridSize="10" guides="1" tooltips="1" connect="1" arrows="1" fold="1" page="1" pageScale="1" pageWidth="827" pageHeight="1169" math="0" shadow="0">
      <root>
        <mxCell id="WIyWlLk6GJQsqaUBKTNV-0" />
        <mxCell id="WIyWlLk6GJQsqaUBKTNV-1" parent="WIyWlLk6GJQsqaUBKTNV-0" />
        <mxCell id="y5s-uYPHy8Nzl8Kdxm5r-6" style="edgeStyle=orthogonalEdgeStyle;rounded=0;orthogonalLoop=1;jettySize=auto;html=1;entryX=0.5;entryY=1;entryDx=0;entryDy=0;" parent="WIyWlLk6GJQsqaUBKTNV-1" source="y5s-uYPHy8Nzl8Kdxm5r-0" target="y5s-uYPHy8Nzl8Kdxm5r-2" edge="1">
          <mxGeometry relative="1" as="geometry" />
        </mxCell>
        <mxCell id="y5s-uYPHy8Nzl8Kdxm5r-9" style="edgeStyle=orthogonalEdgeStyle;rounded=0;orthogonalLoop=1;jettySize=auto;html=1;entryX=0.5;entryY=0;entryDx=0;entryDy=0;" parent="WIyWlLk6GJQsqaUBKTNV-1" source="y5s-uYPHy8Nzl8Kdxm5r-0" target="y5s-uYPHy8Nzl8Kdxm5r-8" edge="1">
          <mxGeometry relative="1" as="geometry" />
        </mxCell>
        <mxCell id="y5s-uYPHy8Nzl8Kdxm5r-23" style="edgeStyle=orthogonalEdgeStyle;rounded=0;orthogonalLoop=1;jettySize=auto;html=1;exitX=0;exitY=0.5;exitDx=0;exitDy=0;entryX=1;entryY=0.5;entryDx=0;entryDy=0;" parent="WIyWlLk6GJQsqaUBKTNV-1" source="y5s-uYPHy8Nzl8Kdxm5r-0" target="y5s-uYPHy8Nzl8Kdxm5r-21" edge="1">
          <mxGeometry relative="1" as="geometry" />
        </mxCell>
        <mxCell id="y5s-uYPHy8Nzl8Kdxm5r-81" style="edgeStyle=orthogonalEdgeStyle;rounded=0;orthogonalLoop=1;jettySize=auto;html=1;exitX=0.5;exitY=0;exitDx=0;exitDy=0;entryX=0.5;entryY=1;entryDx=0;entryDy=0;" parent="WIyWlLk6GJQsqaUBKTNV-1" source="y5s-uYPHy8Nzl8Kdxm5r-0" target="y5s-uYPHy8Nzl8Kdxm5r-82" edge="1">
          <mxGeometry relative="1" as="geometry">
            <mxPoint x="160" y="110" as="targetPoint" />
            <Array as="points">
              <mxPoint x="410" y="160" />
              <mxPoint x="161" y="160" />
              <mxPoint x="161" y="110" />
              <mxPoint x="170" y="110" />
            </Array>
          </mxGeometry>
        </mxCell>
        <mxCell id="y5s-uYPHy8Nzl8Kdxm5r-0" value="Библиотека" style="rounded=0;whiteSpace=wrap;html=1;" parent="WIyWlLk6GJQsqaUBKTNV-1" vertex="1">
          <mxGeometry x="350" y="210" width="120" height="60" as="geometry" />
        </mxCell>
        <mxCell id="y5s-uYPHy8Nzl8Kdxm5r-1" value="Название" style="ellipse;whiteSpace=wrap;html=1;" parent="WIyWlLk6GJQsqaUBKTNV-1" vertex="1">
          <mxGeometry x="510" y="60" width="120" height="80" as="geometry" />
        </mxCell>
        <mxCell id="y5s-uYPHy8Nzl8Kdxm5r-7" style="edgeStyle=orthogonalEdgeStyle;rounded=0;orthogonalLoop=1;jettySize=auto;html=1;" parent="WIyWlLk6GJQsqaUBKTNV-1" source="y5s-uYPHy8Nzl8Kdxm5r-2" target="y5s-uYPHy8Nzl8Kdxm5r-1" edge="1">
          <mxGeometry relative="1" as="geometry" />
        </mxCell>
        <mxCell id="y5s-uYPHy8Nzl8Kdxm5r-2" value="Характеризуется" style="rhombus;whiteSpace=wrap;html=1;" parent="WIyWlLk6GJQsqaUBKTNV-1" vertex="1">
          <mxGeometry x="335" y="60" width="150" height="80" as="geometry" />
        </mxCell>
        <mxCell id="y5s-uYPHy8Nzl8Kdxm5r-12" style="edgeStyle=orthogonalEdgeStyle;rounded=0;orthogonalLoop=1;jettySize=auto;html=1;" parent="WIyWlLk6GJQsqaUBKTNV-1" source="y5s-uYPHy8Nzl8Kdxm5r-3" target="y5s-uYPHy8Nzl8Kdxm5r-11" edge="1">
          <mxGeometry relative="1" as="geometry" />
        </mxCell>
        <mxCell id="y5s-uYPHy8Nzl8Kdxm5r-28" style="edgeStyle=orthogonalEdgeStyle;rounded=0;orthogonalLoop=1;jettySize=auto;html=1;exitX=0.5;exitY=0;exitDx=0;exitDy=0;entryX=0.5;entryY=1;entryDx=0;entryDy=0;" parent="WIyWlLk6GJQsqaUBKTNV-1" source="y5s-uYPHy8Nzl8Kdxm5r-3" target="y5s-uYPHy8Nzl8Kdxm5r-27" edge="1">
          <mxGeometry relative="1" as="geometry" />
        </mxCell>
        <mxCell id="y5s-uYPHy8Nzl8Kdxm5r-46" style="edgeStyle=orthogonalEdgeStyle;rounded=0;orthogonalLoop=1;jettySize=auto;html=1;exitX=0.25;exitY=1;exitDx=0;exitDy=0;" parent="WIyWlLk6GJQsqaUBKTNV-1" source="y5s-uYPHy8Nzl8Kdxm5r-3" target="y5s-uYPHy8Nzl8Kdxm5r-45" edge="1">
          <mxGeometry relative="1" as="geometry" />
        </mxCell>
        <mxCell id="y5s-uYPHy8Nzl8Kdxm5r-3" value="Книга" style="rounded=0;whiteSpace=wrap;html=1;" parent="WIyWlLk6GJQsqaUBKTNV-1" vertex="1">
          <mxGeometry x="510" y="310" width="120" height="60" as="geometry" />
        </mxCell>
        <mxCell id="y5s-uYPHy8Nzl8Kdxm5r-39" style="edgeStyle=orthogonalEdgeStyle;rounded=0;orthogonalLoop=1;jettySize=auto;html=1;entryX=0.5;entryY=1;entryDx=0;entryDy=0;" parent="WIyWlLk6GJQsqaUBKTNV-1" source="y5s-uYPHy8Nzl8Kdxm5r-40" target="y5s-uYPHy8Nzl8Kdxm5r-37" edge="1">
          <mxGeometry relative="1" as="geometry">
            <Array as="points">
              <mxPoint x="290" y="540" />
            </Array>
          </mxGeometry>
        </mxCell>
        <mxCell id="y5s-uYPHy8Nzl8Kdxm5r-44" style="edgeStyle=orthogonalEdgeStyle;rounded=0;orthogonalLoop=1;jettySize=auto;html=1;exitX=0;exitY=0.5;exitDx=0;exitDy=0;entryX=0.972;entryY=0.497;entryDx=0;entryDy=0;entryPerimeter=0;" parent="WIyWlLk6GJQsqaUBKTNV-1" source="y5s-uYPHy8Nzl8Kdxm5r-4" target="y5s-uYPHy8Nzl8Kdxm5r-40" edge="1">
          <mxGeometry relative="1" as="geometry">
            <mxPoint x="500" y="539.7058823529412" as="targetPoint" />
            <Array as="points">
              <mxPoint x="500" y="540" />
            </Array>
          </mxGeometry>
        </mxCell>
        <mxCell id="y5s-uYPHy8Nzl8Kdxm5r-56" style="edgeStyle=orthogonalEdgeStyle;rounded=0;orthogonalLoop=1;jettySize=auto;html=1;entryX=1;entryY=0.5;entryDx=0;entryDy=0;" parent="WIyWlLk6GJQsqaUBKTNV-1" source="y5s-uYPHy8Nzl8Kdxm5r-4" target="y5s-uYPHy8Nzl8Kdxm5r-63" edge="1">
          <mxGeometry relative="1" as="geometry">
            <mxPoint x="180" y="490" as="targetPoint" />
            <Array as="points">
              <mxPoint x="570" y="490" />
            </Array>
          </mxGeometry>
        </mxCell>
        <mxCell id="y5s-uYPHy8Nzl8Kdxm5r-4" value="Читатель" style="rounded=0;whiteSpace=wrap;html=1;" parent="WIyWlLk6GJQsqaUBKTNV-1" vertex="1">
          <mxGeometry x="510" y="510" width="120" height="60" as="geometry" />
        </mxCell>
        <mxCell id="y5s-uYPHy8Nzl8Kdxm5r-10" style="edgeStyle=orthogonalEdgeStyle;rounded=0;orthogonalLoop=1;jettySize=auto;html=1;entryX=0;entryY=0.5;entryDx=0;entryDy=0;" parent="WIyWlLk6GJQsqaUBKTNV-1" source="y5s-uYPHy8Nzl8Kdxm5r-8" target="y5s-uYPHy8Nzl8Kdxm5r-3" edge="1">
          <mxGeometry relative="1" as="geometry" />
        </mxCell>
        <mxCell id="y5s-uYPHy8Nzl8Kdxm5r-8" value="предоставляет" style="rhombus;whiteSpace=wrap;html=1;" parent="WIyWlLk6GJQsqaUBKTNV-1" vertex="1">
          <mxGeometry x="355" y="300" width="110" height="80" as="geometry" />
        </mxCell>
        <mxCell id="y5s-uYPHy8Nzl8Kdxm5r-13" style="edgeStyle=orthogonalEdgeStyle;rounded=0;orthogonalLoop=1;jettySize=auto;html=1;entryX=0.5;entryY=0;entryDx=0;entryDy=0;" parent="WIyWlLk6GJQsqaUBKTNV-1" source="y5s-uYPHy8Nzl8Kdxm5r-11" target="y5s-uYPHy8Nzl8Kdxm5r-4" edge="1">
          <mxGeometry relative="1" as="geometry" />
        </mxCell>
        <mxCell id="y5s-uYPHy8Nzl8Kdxm5r-11" value="может взять или подарить" style="rhombus;whiteSpace=wrap;html=1;" parent="WIyWlLk6GJQsqaUBKTNV-1" vertex="1">
          <mxGeometry x="525" y="400" width="90" height="80" as="geometry" />
        </mxCell>
        <mxCell id="y5s-uYPHy8Nzl8Kdxm5r-14" value="Авторы" style="ellipse;whiteSpace=wrap;html=1;" parent="WIyWlLk6GJQsqaUBKTNV-1" vertex="1">
          <mxGeometry x="680" y="300" width="120" height="80" as="geometry" />
        </mxCell>
        <mxCell id="y5s-uYPHy8Nzl8Kdxm5r-15" value="Название" style="ellipse;whiteSpace=wrap;html=1;" parent="WIyWlLk6GJQsqaUBKTNV-1" vertex="1">
          <mxGeometry x="680" y="400" width="120" height="80" as="geometry" />
        </mxCell>
        <mxCell id="y5s-uYPHy8Nzl8Kdxm5r-17" value="Экземпляр" style="ellipse;whiteSpace=wrap;html=1;" parent="WIyWlLk6GJQsqaUBKTNV-1" vertex="1">
          <mxGeometry x="680" y="500" width="120" height="80" as="geometry" />
        </mxCell>
        <mxCell id="y5s-uYPHy8Nzl8Kdxm5r-18" value="Издательство" style="ellipse;whiteSpace=wrap;html=1;" parent="WIyWlLk6GJQsqaUBKTNV-1" vertex="1">
          <mxGeometry x="680" y="200" width="120" height="80" as="geometry" />
        </mxCell>
        <mxCell id="y5s-uYPHy8Nzl8Kdxm5r-19" value="Год издания" style="ellipse;whiteSpace=wrap;html=1;" parent="WIyWlLk6GJQsqaUBKTNV-1" vertex="1">
          <mxGeometry x="680" y="100" width="120" height="80" as="geometry" />
        </mxCell>
        <mxCell id="y5s-uYPHy8Nzl8Kdxm5r-20" value="Количество экземпляров" style="ellipse;whiteSpace=wrap;html=1;" parent="WIyWlLk6GJQsqaUBKTNV-1" vertex="1">
          <mxGeometry x="680" y="610" width="120" height="80" as="geometry" />
        </mxCell>
        <mxCell id="y5s-uYPHy8Nzl8Kdxm5r-24" style="edgeStyle=orthogonalEdgeStyle;rounded=0;orthogonalLoop=1;jettySize=auto;html=1;exitX=0;exitY=0.5;exitDx=0;exitDy=0;" parent="WIyWlLk6GJQsqaUBKTNV-1" source="y5s-uYPHy8Nzl8Kdxm5r-21" target="y5s-uYPHy8Nzl8Kdxm5r-22" edge="1">
          <mxGeometry relative="1" as="geometry" />
        </mxCell>
        <mxCell id="y5s-uYPHy8Nzl8Kdxm5r-21" value="делится" style="rhombus;whiteSpace=wrap;html=1;" parent="WIyWlLk6GJQsqaUBKTNV-1" vertex="1">
          <mxGeometry x="240" y="200" width="80" height="80" as="geometry" />
        </mxCell>
        <mxCell id="y5s-uYPHy8Nzl8Kdxm5r-22" value="Разделы библиотеки&lt;br&gt;" style="whiteSpace=wrap;html=1;rounded=0;" parent="WIyWlLk6GJQsqaUBKTNV-1" vertex="1">
          <mxGeometry x="100" y="200" width="120" height="80" as="geometry" />
        </mxCell>
        <mxCell id="y5s-uYPHy8Nzl8Kdxm5r-29" style="edgeStyle=orthogonalEdgeStyle;rounded=0;orthogonalLoop=1;jettySize=auto;html=1;exitX=1;exitY=0.5;exitDx=0;exitDy=0;entryX=0;entryY=0.5;entryDx=0;entryDy=0;" parent="WIyWlLk6GJQsqaUBKTNV-1" source="y5s-uYPHy8Nzl8Kdxm5r-27" target="y5s-uYPHy8Nzl8Kdxm5r-18" edge="1">
          <mxGeometry relative="1" as="geometry" />
        </mxCell>
        <mxCell id="y5s-uYPHy8Nzl8Kdxm5r-30" style="edgeStyle=orthogonalEdgeStyle;rounded=0;orthogonalLoop=1;jettySize=auto;html=1;exitX=1;exitY=0.5;exitDx=0;exitDy=0;" parent="WIyWlLk6GJQsqaUBKTNV-1" source="y5s-uYPHy8Nzl8Kdxm5r-27" target="y5s-uYPHy8Nzl8Kdxm5r-19" edge="1">
          <mxGeometry relative="1" as="geometry">
            <Array as="points">
              <mxPoint x="650" y="250" />
              <mxPoint x="650" y="140" />
            </Array>
          </mxGeometry>
        </mxCell>
        <mxCell id="y5s-uYPHy8Nzl8Kdxm5r-31" style="edgeStyle=orthogonalEdgeStyle;rounded=0;orthogonalLoop=1;jettySize=auto;html=1;exitX=1;exitY=0.5;exitDx=0;exitDy=0;entryX=0;entryY=0.5;entryDx=0;entryDy=0;" parent="WIyWlLk6GJQsqaUBKTNV-1" source="y5s-uYPHy8Nzl8Kdxm5r-27" target="y5s-uYPHy8Nzl8Kdxm5r-14" edge="1">
          <mxGeometry relative="1" as="geometry" />
        </mxCell>
        <mxCell id="y5s-uYPHy8Nzl8Kdxm5r-32" style="edgeStyle=orthogonalEdgeStyle;rounded=0;orthogonalLoop=1;jettySize=auto;html=1;entryX=0;entryY=0.5;entryDx=0;entryDy=0;" parent="WIyWlLk6GJQsqaUBKTNV-1" source="y5s-uYPHy8Nzl8Kdxm5r-27" target="y5s-uYPHy8Nzl8Kdxm5r-15" edge="1">
          <mxGeometry relative="1" as="geometry" />
        </mxCell>
        <mxCell id="y5s-uYPHy8Nzl8Kdxm5r-33" style="edgeStyle=orthogonalEdgeStyle;rounded=0;orthogonalLoop=1;jettySize=auto;html=1;entryX=0;entryY=0.5;entryDx=0;entryDy=0;" parent="WIyWlLk6GJQsqaUBKTNV-1" source="y5s-uYPHy8Nzl8Kdxm5r-27" target="y5s-uYPHy8Nzl8Kdxm5r-17" edge="1">
          <mxGeometry relative="1" as="geometry" />
        </mxCell>
        <mxCell id="y5s-uYPHy8Nzl8Kdxm5r-34" style="edgeStyle=orthogonalEdgeStyle;rounded=0;orthogonalLoop=1;jettySize=auto;html=1;entryX=0;entryY=0.5;entryDx=0;entryDy=0;" parent="WIyWlLk6GJQsqaUBKTNV-1" source="y5s-uYPHy8Nzl8Kdxm5r-27" target="y5s-uYPHy8Nzl8Kdxm5r-20" edge="1">
          <mxGeometry relative="1" as="geometry" />
        </mxCell>
        <mxCell id="y5s-uYPHy8Nzl8Kdxm5r-36" style="edgeStyle=orthogonalEdgeStyle;rounded=0;orthogonalLoop=1;jettySize=auto;html=1;entryX=0.5;entryY=0;entryDx=0;entryDy=0;" parent="WIyWlLk6GJQsqaUBKTNV-1" source="y5s-uYPHy8Nzl8Kdxm5r-27" target="y5s-uYPHy8Nzl8Kdxm5r-22" edge="1">
          <mxGeometry relative="1" as="geometry">
            <Array as="points">
              <mxPoint x="570" y="180" />
              <mxPoint x="160" y="180" />
            </Array>
          </mxGeometry>
        </mxCell>
        <mxCell id="y5s-uYPHy8Nzl8Kdxm5r-51" style="edgeStyle=orthogonalEdgeStyle;rounded=0;orthogonalLoop=1;jettySize=auto;html=1;exitX=1;exitY=0.5;exitDx=0;exitDy=0;entryX=0.988;entryY=0.626;entryDx=0;entryDy=0;entryPerimeter=0;" parent="WIyWlLk6GJQsqaUBKTNV-1" source="y5s-uYPHy8Nzl8Kdxm5r-27" target="y5s-uYPHy8Nzl8Kdxm5r-49" edge="1">
          <mxGeometry relative="1" as="geometry">
            <mxPoint x="630" y="660" as="targetPoint" />
            <Array as="points">
              <mxPoint x="650" y="250" />
              <mxPoint x="650" y="650" />
              <mxPoint x="631" y="650" />
              <mxPoint x="631" y="660" />
            </Array>
          </mxGeometry>
        </mxCell>
        <mxCell id="y5s-uYPHy8Nzl8Kdxm5r-54" style="edgeStyle=orthogonalEdgeStyle;rounded=0;orthogonalLoop=1;jettySize=auto;html=1;entryX=0.445;entryY=1.016;entryDx=0;entryDy=0;entryPerimeter=0;" parent="WIyWlLk6GJQsqaUBKTNV-1" target="y5s-uYPHy8Nzl8Kdxm5r-50" edge="1">
          <mxGeometry relative="1" as="geometry">
            <mxPoint x="729.97" y="720.03" as="targetPoint" />
            <mxPoint x="650" y="250" as="sourcePoint" />
            <Array as="points">
              <mxPoint x="650" y="730" />
              <mxPoint x="403" y="730" />
            </Array>
          </mxGeometry>
        </mxCell>
        <mxCell id="y5s-uYPHy8Nzl8Kdxm5r-27" value="характеризуется" style="rhombus;whiteSpace=wrap;html=1;" parent="WIyWlLk6GJQsqaUBKTNV-1" vertex="1">
          <mxGeometry x="520" y="210" width="100" height="80" as="geometry" />
        </mxCell>
        <mxCell id="y5s-uYPHy8Nzl8Kdxm5r-37" value="Оценка" style="ellipse;whiteSpace=wrap;html=1;" parent="WIyWlLk6GJQsqaUBKTNV-1" vertex="1">
          <mxGeometry x="250" y="510" width="80" height="60" as="geometry" />
        </mxCell>
        <mxCell id="y5s-uYPHy8Nzl8Kdxm5r-40" value="может поставить" style="rhombus;whiteSpace=wrap;html=1;" parent="WIyWlLk6GJQsqaUBKTNV-1" vertex="1">
          <mxGeometry x="414" y="500" width="80" height="80" as="geometry" />
        </mxCell>
        <mxCell id="y5s-uYPHy8Nzl8Kdxm5r-47" style="edgeStyle=orthogonalEdgeStyle;rounded=0;orthogonalLoop=1;jettySize=auto;html=1;exitX=0.5;exitY=1;exitDx=0;exitDy=0;" parent="WIyWlLk6GJQsqaUBKTNV-1" source="y5s-uYPHy8Nzl8Kdxm5r-45" target="y5s-uYPHy8Nzl8Kdxm5r-37" edge="1">
          <mxGeometry relative="1" as="geometry" />
        </mxCell>
        <mxCell id="y5s-uYPHy8Nzl8Kdxm5r-45" value="будет иметь" style="rhombus;whiteSpace=wrap;html=1;" parent="WIyWlLk6GJQsqaUBKTNV-1" vertex="1">
          <mxGeometry x="250" y="370" width="80" height="80" as="geometry" />
        </mxCell>
        <mxCell id="y5s-uYPHy8Nzl8Kdxm5r-49" value="Происхождение" style="ellipse;whiteSpace=wrap;html=1;" parent="WIyWlLk6GJQsqaUBKTNV-1" vertex="1">
          <mxGeometry x="494" y="610" width="120" height="80" as="geometry" />
        </mxCell>
        <mxCell id="y5s-uYPHy8Nzl8Kdxm5r-50" value="Наличие" style="ellipse;whiteSpace=wrap;html=1;" parent="WIyWlLk6GJQsqaUBKTNV-1" vertex="1">
          <mxGeometry x="350" y="610" width="120" height="80" as="geometry" />
        </mxCell>
        <mxCell id="y5s-uYPHy8Nzl8Kdxm5r-65" style="edgeStyle=orthogonalEdgeStyle;rounded=0;orthogonalLoop=1;jettySize=auto;html=1;entryX=0.5;entryY=0;entryDx=0;entryDy=0;" parent="WIyWlLk6GJQsqaUBKTNV-1" source="y5s-uYPHy8Nzl8Kdxm5r-63" target="y5s-uYPHy8Nzl8Kdxm5r-64" edge="1">
          <mxGeometry relative="1" as="geometry" />
        </mxCell>
        <mxCell id="y5s-uYPHy8Nzl8Kdxm5r-63" value="имеет" style="rhombus;whiteSpace=wrap;html=1;" parent="WIyWlLk6GJQsqaUBKTNV-1" vertex="1">
          <mxGeometry x="90" y="450" width="80" height="80" as="geometry" />
        </mxCell>
        <mxCell id="y5s-uYPHy8Nzl8Kdxm5r-73" style="edgeStyle=orthogonalEdgeStyle;rounded=0;orthogonalLoop=1;jettySize=auto;html=1;entryX=0.5;entryY=0;entryDx=0;entryDy=0;" parent="WIyWlLk6GJQsqaUBKTNV-1" source="y5s-uYPHy8Nzl8Kdxm5r-64" target="y5s-uYPHy8Nzl8Kdxm5r-72" edge="1">
          <mxGeometry relative="1" as="geometry" />
        </mxCell>
        <mxCell id="y5s-uYPHy8Nzl8Kdxm5r-64" value="Читательский билет" style="rounded=0;whiteSpace=wrap;html=1;" parent="WIyWlLk6GJQsqaUBKTNV-1" vertex="1">
          <mxGeometry x="70" y="560" width="120" height="60" as="geometry" />
        </mxCell>
        <mxCell id="y5s-uYPHy8Nzl8Kdxm5r-66" value="ФИО" style="ellipse;whiteSpace=wrap;html=1;" parent="WIyWlLk6GJQsqaUBKTNV-1" vertex="1">
          <mxGeometry x="190" y="630" width="120" height="80" as="geometry" />
        </mxCell>
        <mxCell id="y5s-uYPHy8Nzl8Kdxm5r-67" value="Адрес" style="ellipse;whiteSpace=wrap;html=1;" parent="WIyWlLk6GJQsqaUBKTNV-1" vertex="1">
          <mxGeometry x="190" y="730" width="120" height="80" as="geometry" />
        </mxCell>
        <mxCell id="y5s-uYPHy8Nzl8Kdxm5r-68" value="Телефон" style="ellipse;whiteSpace=wrap;html=1;" parent="WIyWlLk6GJQsqaUBKTNV-1" vertex="1">
          <mxGeometry x="190" y="830" width="120" height="80" as="geometry" />
        </mxCell>
        <mxCell id="y5s-uYPHy8Nzl8Kdxm5r-69" value="Книги" style="ellipse;whiteSpace=wrap;html=1;" parent="WIyWlLk6GJQsqaUBKTNV-1" vertex="1">
          <mxGeometry x="190" y="930" width="120" height="80" as="geometry" />
        </mxCell>
        <mxCell id="y5s-uYPHy8Nzl8Kdxm5r-70" value="Дата возврата" style="ellipse;whiteSpace=wrap;html=1;" parent="WIyWlLk6GJQsqaUBKTNV-1" vertex="1">
          <mxGeometry x="190" y="1030" width="120" height="80" as="geometry" />
        </mxCell>
        <mxCell id="y5s-uYPHy8Nzl8Kdxm5r-75" style="edgeStyle=orthogonalEdgeStyle;rounded=0;orthogonalLoop=1;jettySize=auto;html=1;exitX=1;exitY=0.5;exitDx=0;exitDy=0;entryX=0;entryY=0.5;entryDx=0;entryDy=0;" parent="WIyWlLk6GJQsqaUBKTNV-1" source="y5s-uYPHy8Nzl8Kdxm5r-72" target="y5s-uYPHy8Nzl8Kdxm5r-66" edge="1">
          <mxGeometry relative="1" as="geometry" />
        </mxCell>
        <mxCell id="y5s-uYPHy8Nzl8Kdxm5r-76" style="edgeStyle=orthogonalEdgeStyle;rounded=0;orthogonalLoop=1;jettySize=auto;html=1;entryX=0;entryY=0.5;entryDx=0;entryDy=0;" parent="WIyWlLk6GJQsqaUBKTNV-1" source="y5s-uYPHy8Nzl8Kdxm5r-72" target="y5s-uYPHy8Nzl8Kdxm5r-67" edge="1">
          <mxGeometry relative="1" as="geometry">
            <Array as="points">
              <mxPoint x="130" y="770" />
            </Array>
          </mxGeometry>
        </mxCell>
        <mxCell id="y5s-uYPHy8Nzl8Kdxm5r-77" style="edgeStyle=orthogonalEdgeStyle;rounded=0;orthogonalLoop=1;jettySize=auto;html=1;entryX=0;entryY=0.625;entryDx=0;entryDy=0;entryPerimeter=0;" parent="WIyWlLk6GJQsqaUBKTNV-1" source="y5s-uYPHy8Nzl8Kdxm5r-72" target="y5s-uYPHy8Nzl8Kdxm5r-68" edge="1">
          <mxGeometry relative="1" as="geometry">
            <mxPoint x="130" y="879.9999999999998" as="targetPoint" />
            <Array as="points">
              <mxPoint x="130" y="880" />
            </Array>
          </mxGeometry>
        </mxCell>
        <mxCell id="y5s-uYPHy8Nzl8Kdxm5r-72" value="имеет данные" style="rhombus;whiteSpace=wrap;html=1;" parent="WIyWlLk6GJQsqaUBKTNV-1" vertex="1">
          <mxGeometry x="90" y="630" width="80" height="80" as="geometry" />
        </mxCell>
        <mxCell id="y5s-uYPHy8Nzl8Kdxm5r-78" style="edgeStyle=orthogonalEdgeStyle;rounded=0;orthogonalLoop=1;jettySize=auto;html=1;exitX=0.5;exitY=1;exitDx=0;exitDy=0;entryX=0;entryY=0.5;entryDx=0;entryDy=0;" parent="WIyWlLk6GJQsqaUBKTNV-1" source="y5s-uYPHy8Nzl8Kdxm5r-72" target="y5s-uYPHy8Nzl8Kdxm5r-69" edge="1">
          <mxGeometry relative="1" as="geometry">
            <mxPoint x="170" y="950" as="targetPoint" />
            <mxPoint x="140" y="720" as="sourcePoint" />
            <Array as="points">
              <mxPoint x="130" y="970" />
            </Array>
          </mxGeometry>
        </mxCell>
        <mxCell id="y5s-uYPHy8Nzl8Kdxm5r-79" style="edgeStyle=orthogonalEdgeStyle;rounded=0;orthogonalLoop=1;jettySize=auto;html=1;exitX=0.5;exitY=1;exitDx=0;exitDy=0;entryX=0;entryY=0.5;entryDx=0;entryDy=0;" parent="WIyWlLk6GJQsqaUBKTNV-1" source="y5s-uYPHy8Nzl8Kdxm5r-72" target="y5s-uYPHy8Nzl8Kdxm5r-70" edge="1">
          <mxGeometry relative="1" as="geometry">
            <mxPoint x="160" y="1080" as="targetPoint" />
            <mxPoint x="130" y="720" as="sourcePoint" />
            <Array as="points">
              <mxPoint x="130" y="1070" />
            </Array>
          </mxGeometry>
        </mxCell>
        <mxCell id="y5s-uYPHy8Nzl8Kdxm5r-86" style="edgeStyle=orthogonalEdgeStyle;rounded=0;orthogonalLoop=1;jettySize=auto;html=1;exitX=0;exitY=0.5;exitDx=0;exitDy=0;entryX=0.5;entryY=0;entryDx=0;entryDy=0;" parent="WIyWlLk6GJQsqaUBKTNV-1" source="y5s-uYPHy8Nzl8Kdxm5r-82" target="y5s-uYPHy8Nzl8Kdxm5r-85" edge="1">
          <mxGeometry relative="1" as="geometry" />
        </mxCell>
        <mxCell id="y5s-uYPHy8Nzl8Kdxm5r-82" value="Имеет" style="rhombus;whiteSpace=wrap;html=1;" parent="WIyWlLk6GJQsqaUBKTNV-1" vertex="1">
          <mxGeometry x="130" y="10" width="80" height="80" as="geometry" />
        </mxCell>
        <mxCell id="y5s-uYPHy8Nzl8Kdxm5r-88" style="edgeStyle=orthogonalEdgeStyle;rounded=0;orthogonalLoop=1;jettySize=auto;html=1;exitX=0.5;exitY=1;exitDx=0;exitDy=0;entryX=0.5;entryY=0;entryDx=0;entryDy=0;" parent="WIyWlLk6GJQsqaUBKTNV-1" source="y5s-uYPHy8Nzl8Kdxm5r-85" target="y5s-uYPHy8Nzl8Kdxm5r-87" edge="1">
          <mxGeometry relative="1" as="geometry" />
        </mxCell>
        <mxCell id="y5s-uYPHy8Nzl8Kdxm5r-85" value="Система" style="rounded=0;whiteSpace=wrap;html=1;" parent="WIyWlLk6GJQsqaUBKTNV-1" vertex="1">
          <mxGeometry x="10" y="120" width="120" height="60" as="geometry" />
        </mxCell>
        <mxCell id="y5s-uYPHy8Nzl8Kdxm5r-91" style="edgeStyle=orthogonalEdgeStyle;rounded=0;orthogonalLoop=1;jettySize=auto;html=1;exitX=0.5;exitY=1;exitDx=0;exitDy=0;entryX=0.5;entryY=1;entryDx=0;entryDy=0;" parent="WIyWlLk6GJQsqaUBKTNV-1" source="y5s-uYPHy8Nzl8Kdxm5r-87" target="y5s-uYPHy8Nzl8Kdxm5r-90" edge="1">
          <mxGeometry relative="1" as="geometry" />
        </mxCell>
        <mxCell id="y5s-uYPHy8Nzl8Kdxm5r-96" style="edgeStyle=orthogonalEdgeStyle;rounded=0;orthogonalLoop=1;jettySize=auto;html=1;entryX=0.5;entryY=0;entryDx=0;entryDy=0;" parent="WIyWlLk6GJQsqaUBKTNV-1" source="y5s-uYPHy8Nzl8Kdxm5r-87" target="y5s-uYPHy8Nzl8Kdxm5r-95" edge="1">
          <mxGeometry relative="1" as="geometry" />
        </mxCell>
        <mxCell id="y5s-uYPHy8Nzl8Kdxm5r-87" value="выдает" style="rhombus;whiteSpace=wrap;html=1;" parent="WIyWlLk6GJQsqaUBKTNV-1" vertex="1">
          <mxGeometry x="30" y="300" width="80" height="80" as="geometry" />
        </mxCell>
        <mxCell id="y5s-uYPHy8Nzl8Kdxm5r-93" style="edgeStyle=orthogonalEdgeStyle;rounded=0;orthogonalLoop=1;jettySize=auto;html=1;exitX=1;exitY=0.5;exitDx=0;exitDy=0;entryX=0;entryY=1;entryDx=0;entryDy=0;" parent="WIyWlLk6GJQsqaUBKTNV-1" source="y5s-uYPHy8Nzl8Kdxm5r-90" target="y5s-uYPHy8Nzl8Kdxm5r-3" edge="1">
          <mxGeometry relative="1" as="geometry">
            <Array as="points">
              <mxPoint x="160" y="360" />
              <mxPoint x="335" y="360" />
              <mxPoint x="335" y="390" />
              <mxPoint x="510" y="390" />
            </Array>
          </mxGeometry>
        </mxCell>
        <mxCell id="y5s-uYPHy8Nzl8Kdxm5r-90" value="дата" style="ellipse;whiteSpace=wrap;html=1;" parent="WIyWlLk6GJQsqaUBKTNV-1" vertex="1">
          <mxGeometry x="110" y="360" width="50" height="40" as="geometry" />
        </mxCell>
        <mxCell id="y5s-uYPHy8Nzl8Kdxm5r-98" style="edgeStyle=orthogonalEdgeStyle;rounded=0;orthogonalLoop=1;jettySize=auto;html=1;exitX=0.5;exitY=1;exitDx=0;exitDy=0;entryX=0;entryY=1;entryDx=0;entryDy=0;" parent="WIyWlLk6GJQsqaUBKTNV-1" target="y5s-uYPHy8Nzl8Kdxm5r-4" edge="1">
          <mxGeometry relative="1" as="geometry">
            <mxPoint x="510" y="580" as="targetPoint" />
            <mxPoint x="35" y="519.95" as="sourcePoint" />
            <Array as="points">
              <mxPoint x="35" y="550" />
              <mxPoint x="241" y="550" />
              <mxPoint x="241" y="580" />
              <mxPoint x="510" y="580" />
            </Array>
          </mxGeometry>
        </mxCell>
        <mxCell id="y5s-uYPHy8Nzl8Kdxm5r-95" value="Статистика" style="ellipse;whiteSpace=wrap;html=1;" parent="WIyWlLk6GJQsqaUBKTNV-1" vertex="1">
          <mxGeometry y="460" width="70" height="50" as="geometry" />
        </mxCell>
      </root>
    </mxGraphModel>
  </diagram>
</mxfile>
